<svg width="24" height="24" viewBox="0 0 24 24" fill="none" xmlns="http://www.w3.org/2000/svg">
<path d="M1.816 15.556V15.558C1.816 17.06 2.4 18.47 3.462 19.53C4.524 20.59 5.934 21.177 7.436 21.177C8.17395 21.1791 8.90499 21.0347 9.58679 20.7524C10.2686 20.47 10.8876 20.0552 11.408 19.532L20.955 9.98399C21.724 9.21599 22.102 8.21699 22.013 7.16699C21.934 6.19899 21.465 5.23999 20.694 4.46899C19.1 2.87699 16.626 2.75799 15.177 4.20699L7.261 12.122C6.38 13.003 6.469 14.372 7.475 15.383C8.434 16.341 9.898 16.436 10.738 15.598L16.249 10.086C16.529 9.80599 16.516 9.36399 16.302 9.14999L16.058 8.90599C15.867 8.71499 15.491 8.55699 15.101 8.94599L9.595 14.452C9.415 14.632 8.96 14.579 8.619 14.238C8.521 14.141 8.043 13.625 8.406 13.265L16.321 5.34799C17.139 4.53099 18.588 4.64899 19.551 5.60999C20.051 6.11099 20.353 6.70999 20.4 7.29499C20.451 7.86799 20.244 8.40599 19.811 8.83799L10.264 18.387C9.89344 18.7597 9.45256 19.0552 8.96693 19.2562C8.4813 19.4572 7.96059 19.5598 7.435 19.558C6.90915 19.5594 6.38824 19.4564 5.90246 19.2551C5.41668 19.0537 4.97568 18.758 4.605 18.385C4.23234 18.0145 3.93687 17.5738 3.73569 17.0884C3.53452 16.603 3.43163 16.0825 3.433 15.557C3.433 14.486 3.848 13.481 4.605 12.727L11.814 5.51599C11.971 5.35899 12.078 4.93699 11.842 4.70199L11.5 4.35999C11.4453 4.30416 11.3797 4.26013 11.3073 4.23063C11.2349 4.20112 11.1573 4.18677 11.0791 4.18846C11.001 4.19015 10.924 4.20784 10.8529 4.24043C10.7819 4.27303 10.7183 4.31985 10.666 4.37799L3.461 11.585C2.93777 12.1052 2.52295 12.724 2.24058 13.4057C1.9582 14.0873 1.81389 14.8182 1.816 15.556Z" fill="white"/>
</svg>
