<svg width="14" height="18" viewBox="0 0 14 18" fill="none" xmlns="http://www.w3.org/2000/svg">
<path d="M12.502 5.035L11.932 4.591C11.8412 4.52033 11.726 4.48863 11.6118 4.50288C11.4975 4.51714 11.3937 4.57617 11.323 4.667L4.93299 12.865C4.90022 12.9091 4.85826 12.9457 4.81 12.972C4.76175 12.9984 4.70835 13.0139 4.65349 13.0176C4.59863 13.0214 4.54362 13.0131 4.49226 12.9935C4.4409 12.9739 4.39441 12.9433 4.35599 12.904L1.74199 10.348C1.65954 10.2677 1.54863 10.2234 1.43355 10.2247C1.31846 10.226 1.20859 10.2728 1.12799 10.355L0.622992 10.871C0.542697 10.9535 0.49835 11.0644 0.499662 11.1794C0.500974 11.2945 0.547839 11.4044 0.629992 11.485L4.51699 15.285C4.55541 15.3243 4.6019 15.3549 4.65326 15.3745C4.70463 15.3941 4.75963 15.4024 4.81449 15.3986C4.86935 15.3949 4.92275 15.3794 4.971 15.353C5.01926 15.3267 5.06122 15.2901 5.09399 15.246L12.577 5.644C12.6475 5.55319 12.6792 5.43814 12.6652 5.32402C12.6511 5.2099 12.5924 5.10599 12.502 5.035Z" fill="white"/>
</svg>
