<svg width="24" height="24" viewBox="0 0 24 24" fill="none" xmlns="http://www.w3.org/2000/svg">
<path d="M12 6.99999C12.2627 6.99993 12.5228 6.94812 12.7655 6.84752C13.0082 6.74693 13.2287 6.59952 13.4144 6.41371C13.6001 6.2279 13.7474 6.00733 13.8479 5.76459C13.9484 5.52185 14.0001 5.2617 14 4.99899C13.9999 4.73628 13.9481 4.47616 13.8475 4.23347C13.7469 3.99079 13.5995 3.77029 13.4137 3.58457C13.2279 3.39885 13.0073 3.25155 12.7646 3.15108C12.5219 3.05061 12.2617 2.99893 11.999 2.99899C11.4684 2.99913 10.9597 3.21002 10.5846 3.58528C10.2095 3.96054 9.99887 4.46943 9.999 4.99999C9.99914 5.53056 10.21 6.03934 10.5853 6.41441C10.9606 6.78949 11.4694 7.00013 12 6.99999ZM12 8.99999C11.7337 8.99397 11.4688 9.04122 11.221 9.13896C10.9732 9.23671 10.7473 9.38298 10.5568 9.5692C10.3663 9.75541 10.2149 9.97781 10.1115 10.2233C10.0081 10.4689 9.95485 10.7326 9.95479 10.999C9.95472 11.2654 10.0079 11.5291 10.1111 11.7747C10.2144 12.0203 10.3657 12.2428 10.5561 12.4291C10.7465 12.6154 10.9723 12.7618 11.22 12.8596C11.4678 12.9575 11.7327 13.0049 11.999 12.999C12.5216 12.9874 13.0188 12.7718 13.3844 12.3982C13.7499 12.0245 13.9547 11.5227 13.9548 11C13.9549 10.4773 13.7504 9.97532 13.3851 9.60152C13.0197 9.22773 12.5226 9.01181 12 8.99999ZM12 15C11.7337 14.994 11.4688 15.0412 11.221 15.139C10.9732 15.2367 10.7473 15.383 10.5568 15.5692C10.3663 15.7554 10.2149 15.9778 10.1115 16.2233C10.0081 16.4689 9.95485 16.7326 9.95479 16.999C9.95472 17.2654 10.0079 17.5291 10.1111 17.7747C10.2144 18.0203 10.3657 18.2428 10.5561 18.4291C10.7465 18.6154 10.9723 18.7618 11.22 18.8596C11.4678 18.9575 11.7327 19.0049 11.999 18.999C12.5216 18.9874 13.0188 18.7718 13.3844 18.3982C13.7499 18.0245 13.9547 17.5227 13.9548 17C13.9549 16.4773 13.7504 15.9753 13.3851 15.6015C13.0197 15.2277 12.5226 15.0118 12 15Z" fill="white"/>
</svg>
