<svg width="16" height="15" viewBox="0 0 16 15" fill="none" xmlns="http://www.w3.org/2000/svg">
<path d="M15.01 3.316L14.532 2.944C14.4558 2.88514 14.3595 2.85874 14.264 2.87054C14.1685 2.88234 14.0815 2.93138 14.022 3.00699L8.66599 9.87899C8.6384 9.91587 8.60317 9.94635 8.56271 9.96836C8.52225 9.99037 8.47751 10.0034 8.43156 10.0065C8.38561 10.0097 8.33953 10.0028 8.29645 9.98652C8.25338 9.9702 8.21434 9.94478 8.18199 9.91199L7.82399 9.587C7.7918 9.554 7.75283 9.52837 7.70978 9.51188C7.66673 9.49538 7.62062 9.48842 7.57462 9.49146C7.52862 9.4945 7.48382 9.50748 7.44332 9.5295C7.40281 9.55151 7.36756 9.58205 7.33999 9.619L6.96199 10.102C6.90272 10.1817 6.87378 10.28 6.88038 10.3791C6.88698 10.4783 6.92867 10.5718 6.99799 10.643L8.31799 11.909C8.46099 12.049 8.67899 12.034 8.80199 11.876L15.074 3.828C15.1331 3.7515 15.1596 3.65473 15.1476 3.5588C15.1356 3.46287 15.0861 3.37558 15.01 3.316ZM10.91 3.316L10.432 2.944C10.3558 2.88514 10.2595 2.85874 10.164 2.87054C10.0685 2.88234 9.98153 2.93138 9.92199 3.00699L4.56599 9.87899C4.5384 9.91587 4.50317 9.94635 4.46271 9.96836C4.42225 9.99037 4.37751 10.0034 4.33156 10.0065C4.28561 10.0097 4.23953 10.0028 4.19645 9.98652C4.15338 9.9702 4.11434 9.94478 4.08199 9.91199L1.89099 7.769C1.82168 7.70194 1.72869 7.66496 1.63226 7.66608C1.53582 7.6672 1.44373 7.70635 1.37599 7.775L0.952993 8.208C0.885757 8.27702 0.848632 8.36988 0.849756 8.46624C0.850881 8.56259 0.890164 8.65456 0.958993 8.722L4.21699 11.907C4.35999 12.047 4.57799 12.032 4.70099 11.874L10.973 3.82599C11.0318 3.74985 11.0582 3.65354 11.0465 3.55803C11.0347 3.46252 10.9856 3.37553 10.91 3.316Z" fill="white"/>
</svg>
