<svg width="24" height="24" viewBox="0 0 24 24" fill="none" xmlns="http://www.w3.org/2000/svg">
<path d="M12.072 1.76101C10.1425 1.70998 8.23916 2.21566 6.58942 3.2176C4.93969 4.21953 3.61337 5.67534 2.769 7.41101C2.66485 7.64262 2.65497 7.90569 2.74146 8.14446C2.82796 8.38323 3.00402 8.57894 3.23235 8.69011C3.46068 8.80128 3.72332 8.81918 3.96462 8.74002C4.20592 8.66085 4.40691 8.49083 4.525 8.26601C5.20531 6.86739 6.27398 5.69428 7.60327 4.88687C8.93257 4.07947 10.4663 3.67194 12.021 3.71301C12.1521 3.72128 12.2835 3.70305 12.4074 3.65939C12.5312 3.61573 12.645 3.54754 12.7419 3.4589C12.8389 3.37027 12.9169 3.26299 12.9714 3.14351C13.0259 3.02402 13.0558 2.89476 13.0592 2.76347C13.0627 2.63217 13.0396 2.50153 12.9914 2.37936C12.9432 2.25718 12.8708 2.14598 12.7787 2.05241C12.6865 1.95883 12.5764 1.88479 12.455 1.83472C12.3336 1.78465 12.2033 1.75958 12.072 1.76101ZM1.926 13.64C2.27751 15.5379 3.16799 17.2944 4.49104 18.6997C5.81409 20.1051 7.51377 21.0998 9.387 21.565C9.63447 21.6169 9.8924 21.5707 10.1066 21.4364C10.3208 21.302 10.4745 21.0898 10.5355 20.8444C10.5965 20.5991 10.56 20.3396 10.4336 20.1206C10.3073 19.9016 10.1009 19.7401 9.858 19.67C8.3484 19.2954 6.97863 18.494 5.91247 17.3615C4.84631 16.229 4.1289 14.8134 3.846 13.284C3.79092 13.0371 3.64219 12.8211 3.43112 12.6816C3.22004 12.5421 2.96308 12.4899 2.71432 12.5361C2.46555 12.5822 2.24438 12.723 2.09734 12.9289C1.95031 13.1348 1.88889 13.3897 1.926 13.64ZM15.655 21.094C17.4384 20.3555 18.9714 19.1193 20.071 17.5329C21.1706 15.9465 21.7903 14.0771 21.856 12.148C21.8613 12.0199 21.8414 11.892 21.7972 11.7716C21.7531 11.6512 21.6857 11.5407 21.5989 11.4464C21.5121 11.352 21.4075 11.2757 21.2912 11.2218C21.1749 11.1678 21.0491 11.1373 20.921 11.132C20.7929 11.1267 20.665 11.1467 20.5446 11.1908C20.4242 11.2349 20.3137 11.3023 20.2194 11.3891C20.0288 11.5644 19.9157 11.8083 19.905 12.067V12.081C19.8526 13.6357 19.3534 15.1423 18.4672 16.4208C17.5811 17.6992 16.3454 18.6953 14.908 19.29C14.6742 19.391 14.489 19.5792 14.392 19.8147C14.2949 20.0502 14.2936 20.3142 14.3884 20.5506C14.4832 20.787 14.6666 20.977 14.8994 21.0802C15.1323 21.1834 15.3962 21.1916 15.635 21.103L15.655 21.094Z" fill="white"/>
<path d="M19 1.5C19.7956 1.5 20.5587 1.81607 21.1213 2.37868C21.6839 2.94129 22 3.70435 22 4.5C22 5.29565 21.6839 6.05871 21.1213 6.62132C20.5587 7.18393 19.7956 7.5 19 7.5C18.2044 7.5 17.4413 7.18393 16.8787 6.62132C16.3161 6.05871 16 5.29565 16 4.5C16 3.70435 16.3161 2.94129 16.8787 2.37868C17.4413 1.81607 18.2044 1.5 19 1.5Z" fill="#009588"/>
</svg>
