<svg width="24" height="24" viewBox="0 0 24 24" fill="none" xmlns="http://www.w3.org/2000/svg">
<path d="M12 20.664C10.7884 20.6671 9.5882 20.4299 8.46888 19.9661C7.34955 19.5023 6.33332 18.8211 5.479 17.962C5.30529 17.777 5.2104 17.5316 5.2144 17.2779C5.2184 17.0241 5.32098 16.7819 5.50044 16.6024C5.67989 16.423 5.92213 16.3204 6.17588 16.3164C6.42963 16.3124 6.67498 16.4073 6.86 16.581C8.17992 17.901 9.95706 18.6626 11.8232 18.708C13.6893 18.7534 15.5014 18.0792 16.884 16.825C17.0774 16.6629 17.326 16.5819 17.5778 16.5991C17.8295 16.6162 18.0649 16.73 18.2346 16.9168C18.4043 17.1035 18.4952 17.3487 18.4882 17.601C18.4812 17.8532 18.3768 18.093 18.197 18.27C16.502 19.8127 14.2919 20.6665 12 20.664ZM19.965 14.552C19.8152 14.552 19.6674 14.5176 19.5331 14.4514C19.3987 14.3852 19.2814 14.2889 19.1901 14.1701C19.0989 14.0513 19.0362 13.9132 19.0068 13.7663C18.9775 13.6194 18.9824 13.4677 19.021 13.323C19.5068 11.5198 19.2791 9.5988 18.3851 7.95919C17.4912 6.31957 15.9998 5.08749 14.221 4.519C13.9835 4.43293 13.7886 4.25824 13.6772 4.03157C13.5657 3.80489 13.5464 3.54386 13.6232 3.30324C13.7 3.06262 13.8671 2.86112 14.0893 2.741C14.3115 2.62088 14.5716 2.5915 14.815 2.659C17.0719 3.38005 18.9642 4.94295 20.0987 7.02296C21.2332 9.10296 21.5227 11.5401 20.907 13.828C20.8515 14.0355 20.7292 14.2189 20.5589 14.3498C20.3885 14.4807 20.1798 14.5518 19.965 14.552ZM3.94 14.162C3.71729 14.1616 3.50139 14.0852 3.32807 13.9453C3.15475 13.8055 3.03441 13.6106 2.987 13.393C2.48255 11.078 2.88965 8.65771 4.12367 6.63516C5.35769 4.6126 7.32369 3.14341 9.613 2.533C9.73657 2.49886 9.86566 2.48939 9.9929 2.50513C10.1201 2.52088 10.243 2.56153 10.3545 2.62477C10.4661 2.688 10.564 2.77259 10.6429 2.87369C10.7217 2.97479 10.7799 3.09043 10.814 3.214C10.8481 3.33757 10.8576 3.46666 10.8419 3.5939C10.8261 3.72113 10.7855 3.84402 10.7222 3.95554C10.659 4.06706 10.5744 4.16504 10.4733 4.24387C10.3722 4.32271 10.2566 4.38086 10.133 4.415L10.118 4.419C8.31385 4.89998 6.76441 6.05766 5.79171 7.65145C4.81901 9.24524 4.49786 11.1526 4.895 12.977C4.92589 13.1196 4.92447 13.2674 4.89084 13.4094C4.85721 13.5514 4.79222 13.6841 4.70065 13.7977C4.60907 13.9113 4.49323 14.003 4.36161 14.0661C4.22999 14.1291 4.08594 14.1619 3.94 14.162Z" fill="white"/>
</svg>
